<svg id="Layer_1" enable-background="new 0 0 511.897 511.897" height="512" viewBox="0 0 511.897 511.897" width="512" xmlns="http://www.w3.org/2000/svg"><path d="m255.897 511.896c-11.046 0-20-8.954-20-20v-256c0-11.028-8.972-20-20-20h-130.398c-20.932 0-41.072-8.828-55.256-24.221l-15.04-16.32c-20.154-21.106-20.288-56.81-.297-78.067l15.201-16.749c14.213-15.661 34.494-24.643 55.643-24.643h90.147c26.536 1.056 26.516 38.953 0 40h-90.147c-9.89 0-19.375 4.201-26.022 11.524l-15.201 16.75c-6.251 6.888-6.211 17.239.092 24.079l15.04 16.32c6.633 7.199 16.052 11.327 25.841 11.327h130.398c33.084 0 60 26.916 60 60v256c-.001 11.046-8.955 20-20.001 20zm-60-20c0-11.046-8.954-20-20-20h-156c-26.536 1.056-26.516 38.953 0 40h156c11.046 0 20-8.954 20-20zm316 0c0-11.046-8.954-20-20-20h-156c-26.536 1.056-26.516 38.953 0 40h156c11.046 0 20-8.954 20-20zm-256-348c-11.046 0-20-8.954-20-20v-104c1.056-26.536 38.953-26.516 40 0v104c0 11.046-8.954 20-20 20zm225.654 47.779 15.04-16.32c20.153-21.105 20.288-56.81.297-78.067l-15.201-16.75c-14.213-15.661-34.494-24.643-55.642-24.643h-90.147c-26.536 1.056-26.516 38.953 0 40h90.147c9.89 0 19.375 4.201 26.022 11.524l15.201 16.75c6.251 6.888 6.211 17.239-.092 24.079l-15.04 16.32c-6.634 7.199-16.052 11.327-25.841 11.327h-94.398c-26.536 1.056-26.516 38.953 0 40h94.398c20.932.001 41.072-8.827 55.256-24.22z"/></svg>